<svg width="533" height="259" viewBox="0 0 533 259" fill="none" xmlns="http://www.w3.org/2000/svg">
<path d="M23.515 184.391C27.7337 178.865 32.0775 173.156 36.4837 167.323H42.3171V212H32.8223V187.49L21.4056 202.568L9.92643 187.427V212H0.431641V167.323H6.32747L21.4056 187.182C21.8379 186.62 22.5202 185.693 23.515 184.391ZM81.9681 191.714L78.2441 179.177L74.4577 191.714H81.9681ZM97.9108 212H87.9837L84.6348 200.646H71.7858L68.4369 212H58.5098L71.8483 167.323H84.5723L97.9108 212ZM132.348 183.891L141.593 167.323H152.515L140.166 189.661L152.515 212H141.593L132.348 195.432L123.104 212H112.307L124.656 189.661L112.307 167.323H123.104L132.348 183.891ZM224.494 184.391C228.713 178.865 233.057 173.156 237.463 167.323H243.296V212H233.801V187.49L222.385 202.568L210.906 187.427V212H201.411V167.323H207.301L222.385 187.182C222.817 186.62 223.499 185.693 224.494 184.391ZM282.942 191.714L279.218 179.177L275.432 191.714H282.942ZM298.89 212H288.963L285.609 200.646H272.765L269.416 212H259.484L272.827 167.323H285.546L298.89 212ZM333.947 190.161C335.499 188.609 336.307 186.688 336.307 184.391C336.307 182.031 335.499 180.104 333.947 178.557C332.395 177.005 330.536 176.198 328.421 176.198H324.515V192.521H328.421C330.536 192.521 332.395 191.714 333.947 190.161ZM343.38 193.078C341.765 195.745 339.718 197.729 337.359 199.031L346.234 212H335.187L328.114 201.391H324.515V212H315.02V167.323H328.421C333.265 167.323 337.421 169 340.77 172.349C344.187 175.703 345.859 179.734 345.859 184.391C345.859 187.552 345.051 190.469 343.38 193.078ZM373.223 211.63H363.729V166.953H373.223V211.63ZM423.234 199.219C425.906 196.615 427.208 193.385 427.208 189.542C427.208 185.693 425.906 182.526 423.234 179.859C420.63 177.255 417.463 175.948 413.807 175.948C410.208 175.948 407.041 177.255 404.432 179.859C401.765 182.526 400.463 185.693 400.463 189.542C400.463 193.385 401.765 196.615 404.432 199.281C407.041 201.885 410.208 203.193 413.807 203.193C417.463 203.193 420.63 201.885 423.234 199.219ZM425.593 169.87C429.13 171.917 431.921 174.708 434.036 178.12C436.083 181.599 437.135 185.38 437.135 189.542C437.135 193.698 436.083 197.484 434.036 200.958C431.921 204.432 429.13 207.224 425.593 209.271C422.119 211.38 418.15 212.438 413.807 212.438C409.463 212.438 405.551 211.38 402.015 209.271C398.479 207.224 395.687 204.432 393.635 200.958C391.588 197.484 390.536 193.698 390.536 189.542C390.536 185.443 391.588 181.656 393.635 178.182C395.687 174.708 398.479 171.917 402.015 169.87C405.551 167.76 409.463 166.703 413.807 166.703C418.15 166.703 422.119 167.76 425.593 169.87ZM463.942 167.323V203.13H480.447V212H454.447V167.323H463.942Z" fill="white"/>
<mask id="mask0_201_1880" style="mask-type:luminance" maskUnits="userSpaceOnUse" x="492" y="166" width="41" height="46">
<path d="M492.432 166.667H532.817V212H492.432V166.667Z" fill="white"/>
</mask>
<g mask="url(#mask0_201_1880)">
<path d="M516.868 191.714L513.145 179.177L509.358 191.714H516.868ZM532.816 212H522.889L519.535 200.646H506.691L503.337 212H493.41L506.754 167.323H519.473L532.816 212Z" fill="white"/>
</g>
<mask id="mask1_201_1880" style="mask-type:luminance" maskUnits="userSpaceOnUse" x="161" y="236" width="16" height="23">
<path d="M161.766 236H176.432V258.505H161.766V236Z" fill="white"/>
</mask>
<g mask="url(#mask1_201_1880)">
<path d="M171.428 248.516C172.355 247.583 172.824 246.469 172.824 245.161C172.824 243.828 172.355 242.714 171.428 241.781C170.495 240.849 169.381 240.385 168.042 240.385H165.251V249.911H168.042C169.381 249.911 170.495 249.443 171.428 248.516ZM174.777 249.198C174.032 250.406 172.912 251.432 171.428 252.271L175.521 258.286H171.923L168.386 252.984H165.251V258.286H162.178V237.312H168.042C170.214 237.312 172.079 238.089 173.631 239.609C175.146 241.13 175.923 242.99 175.923 245.161C175.923 246.651 175.553 247.984 174.777 249.198Z" fill="white"/>
</g>
<mask id="mask2_201_1880" style="mask-type:luminance" maskUnits="userSpaceOnUse" x="184" y="236" width="5" height="23">
<path d="M184.432 236H188.432V258.505H184.432V236Z" fill="white"/>
</mask>
<g mask="url(#mask2_201_1880)">
<path d="M187.745 258.099H184.672V237.13H187.745V258.099Z" fill="white"/>
</g>
<mask id="mask3_201_1880" style="mask-type:luminance" maskUnits="userSpaceOnUse" x="196" y="236" width="13" height="23">
<path d="M196.432 236H208.432V258.505H196.432V236Z" fill="white"/>
</mask>
<g mask="url(#mask3_201_1880)">
<path d="M207.442 237.312V240.385H202.109C201.426 240.385 200.838 240.635 200.338 241.13C199.843 241.625 199.593 242.219 199.593 242.901V242.995C199.593 243.922 200.025 244.635 200.864 245.167L205.301 247.74C207.197 248.948 208.124 250.563 208.124 252.641C208.124 254.193 207.567 255.526 206.484 256.641C205.364 257.729 204.031 258.286 202.479 258.286H197.202V255.219H202.541C203.223 255.219 203.812 254.969 204.312 254.469C204.807 253.974 205.057 253.385 205.057 252.703V252.609C205.057 251.677 204.619 250.964 203.781 250.438L199.348 247.865C197.452 246.651 196.525 245.042 196.525 242.958C196.525 241.411 197.083 240.073 198.166 238.958C199.286 237.875 200.619 237.312 202.171 237.312H207.442Z" fill="white"/>
</g>
<mask id="mask4_201_1880" style="mask-type:luminance" maskUnits="userSpaceOnUse" x="215" y="236" width="15" height="23">
<path d="M215.098 236H229.764V258.505H215.098V236Z" fill="white"/>
</mask>
<g mask="url(#mask4_201_1880)">
<path d="M215.291 237.312H229.005V240.385H223.702V258.286H220.598V240.385H215.291V237.312Z" fill="white"/>
</g>
<mask id="mask5_201_1880" style="mask-type:luminance" maskUnits="userSpaceOnUse" x="235" y="236" width="23" height="23">
<path d="M235.098 236H257.764V258.505H235.098V236Z" fill="white"/>
</mask>
<g mask="url(#mask5_201_1880)">
<path d="M251.499 253.047C252.957 251.583 253.702 249.817 253.702 247.739C253.702 245.661 252.957 243.922 251.499 242.463C250.04 241.005 248.238 240.26 246.16 240.26C244.082 240.26 242.316 241.005 240.858 242.463C239.4 243.922 238.655 245.661 238.655 247.739C238.655 249.817 239.4 251.583 240.858 253.047C242.316 254.505 244.082 255.244 246.16 255.244C248.238 255.244 250.04 254.505 251.499 253.047ZM251.592 238.463C253.238 239.422 254.54 240.729 255.53 242.338C256.493 243.953 256.988 245.755 256.988 247.739C256.988 249.724 256.493 251.526 255.53 253.135C254.54 254.781 253.238 256.083 251.592 257.047C249.978 258.01 248.145 258.505 246.16 258.505C244.176 258.505 242.374 258.01 240.733 257.047C239.087 256.083 237.785 254.781 236.822 253.135C235.858 251.526 235.363 249.724 235.363 247.739C235.363 245.786 235.858 243.984 236.822 242.369C237.785 240.729 239.087 239.422 240.733 238.463C242.374 237.5 244.176 237.005 246.16 237.005C248.145 237.005 249.978 237.5 251.592 238.463Z" fill="white"/>
</g>
<mask id="mask6_201_1880" style="mask-type:luminance" maskUnits="userSpaceOnUse" x="264" y="236" width="17" height="23">
<path d="M264.432 236H280.432V258.505H264.432V236Z" fill="white"/>
</mask>
<g mask="url(#mask6_201_1880)">
<path d="M274.889 248.516C275.822 247.583 276.285 246.469 276.285 245.161C276.285 243.828 275.822 242.714 274.889 241.781C273.962 240.849 272.842 240.385 271.509 240.385H268.717V249.911H271.509C272.842 249.911 273.962 249.443 274.889 248.516ZM278.243 249.198C277.499 250.406 276.379 251.432 274.889 252.271L278.983 258.286H275.384L271.853 252.984H268.717V258.286H265.645V237.312H271.509C273.681 237.312 275.54 238.089 277.092 239.609C278.613 241.13 279.389 242.99 279.389 245.161C279.389 246.651 279.02 247.984 278.243 249.198Z" fill="white"/>
</g>
<mask id="mask7_201_1880" style="mask-type:luminance" maskUnits="userSpaceOnUse" x="285" y="236" width="20" height="23">
<path d="M285.766 236H304.432V258.505H285.766V236Z" fill="white"/>
</mask>
<g mask="url(#mask7_201_1880)">
<path d="M298.343 249.505L295.426 239.672L292.484 249.505H298.343ZM304.208 258.286H300.952L299.275 252.609H291.551L289.874 258.286H286.619L292.885 237.312H297.942L304.208 258.286Z" fill="white"/>
</g>
<mask id="mask8_201_1880" style="mask-type:luminance" maskUnits="userSpaceOnUse" x="311" y="236" width="18" height="23">
<path d="M311.098 236H328.431V258.505H311.098V236Z" fill="white"/>
</mask>
<g mask="url(#mask8_201_1880)">
<path d="M315.348 244.359V258.286H312.275V237.312H313.921L324.624 251.245V237.312H327.723V258.286H326.083L315.348 244.359Z" fill="white"/>
</g>
<mask id="mask9_201_1880" style="mask-type:luminance" maskUnits="userSpaceOnUse" x="335" y="236" width="15" height="23">
<path d="M335.098 236H349.764V258.505H335.098V236Z" fill="white"/>
</mask>
<g mask="url(#mask9_201_1880)">
<path d="M335.729 237.312H349.442V240.385H344.14V258.286H341.036V240.385H335.729V237.312Z" fill="white"/>
</g>
<mask id="mask10_201_1880" style="mask-type:luminance" maskUnits="userSpaceOnUse" x="356" y="236" width="14" height="23">
<path d="M356.432 236H369.765V258.505H356.432V236Z" fill="white"/>
</mask>
<g mask="url(#mask10_201_1880)">
<path d="M360.551 240.385V246.25H366.354V249.354H360.551V255.219H368.801V258.286H357.479V237.312H368.801V240.385H360.551Z" fill="white"/>
</g>
<path d="M292.193 21.3335C290.969 20.8907 290.484 19.9532 291.026 15.823C291.307 13.6876 291.302 12.0626 290.38 11.0939C289.495 10.1668 288.057 10.1512 286.635 10.271C284.958 10.4116 283.682 11.7814 282.76 13.3126C283.172 12.3335 283.682 11.3074 284.255 10.3751C286.291 7.08866 290.318 5.28658 297.036 3.1147C303.818 0.916784 309.5 1.70845 313.458 5.39595C314.521 6.38553 315.406 7.15637 316.187 7.83866C318.515 9.86991 319.802 10.9897 322.203 14.7032C325.213 19.3439 324.562 23.3387 323.734 28.396L323.656 28.8647C323.359 30.6824 323.239 32.2866 323.297 33.6303C323.338 34.6147 322.713 35.5001 321.781 35.7866L321.526 35.8647C320.323 36.2345 320.208 36.2814 318.521 37.1251C315.937 38.4168 312.552 34.2032 311.614 32.9376C311.927 31.698 312.437 28.3699 310.015 25.2189C309.01 23.9168 307.995 23.2241 306.911 23.1043C306.323 23.0366 305.797 23.1512 305.328 23.3491C302.812 21.5835 300.318 22.5522 299.901 22.7345L295.739 24.2293L294.854 23.9897C294.719 23.9532 294.578 23.9585 294.437 23.9845C293.844 22.6407 293.14 21.672 292.193 21.3335ZM302.193 25.3282C300.828 25.9168 297.984 27.1303 299.026 30.4949C300.172 34.1772 300.01 34.922 298.948 35.297C298.786 35.3543 298.693 35.3335 298.604 35.2866C297.854 34.9168 297.198 32.8439 296.802 31.6043C296.693 31.2501 296.583 30.9116 296.484 30.6199C296.328 30.1772 296.151 29.5001 295.943 28.7137C295.849 28.3647 295.76 28.021 295.666 27.6824L295.76 27.646C295.916 27.5939 296.052 27.5001 296.161 27.3803L296.677 26.7866C297.068 26.6512 297.979 26.3282 300.015 25.573C301.026 25.1928 301.833 25.1512 302.437 25.2241C302.359 25.2605 302.276 25.297 302.193 25.3282ZM278.693 30.5626C278.703 30.6043 278.713 30.6512 278.729 30.6928L279.349 32.4116C279.354 32.4272 279.359 32.4376 279.37 32.4532C279.62 33.0522 281.88 38.3543 283.594 39.698C283.765 39.8282 283.969 39.896 284.177 39.896C284.375 39.896 284.573 39.8335 284.745 39.7085L285.547 39.1043C285.953 38.8022 286.047 38.2345 285.765 37.8178C285.75 37.797 284.443 35.8647 283.396 33.6147L282.745 32.2085L293.88 28.3074C293.969 28.6303 294.047 28.9324 294.114 29.1928C294.328 30.0157 294.515 30.7293 294.693 31.2397C294.791 31.521 294.896 31.8387 295 32.1772C295.578 33.9897 296.291 36.2501 297.755 36.9793C298.323 37.2657 298.953 37.297 299.573 37.0782C302.713 35.9845 301.672 32.6303 300.833 29.9324C300.349 28.3699 301.14 27.8387 302.937 27.0678C303.344 26.896 303.724 26.7345 304.036 26.5366C304.297 26.3751 304.552 26.1616 304.818 25.9428C305.427 25.4324 306.062 24.9116 306.703 24.9793C307.234 25.0418 307.859 25.521 308.515 26.3751C310.854 29.4168 309.734 32.6564 309.687 32.7918L309.677 32.823C309.651 32.8751 309.625 32.9272 309.609 32.9793C309.599 33.021 309.583 33.0678 309.573 33.1095L309.521 33.2397L309.526 33.2501C308.927 35.1303 307.666 37.7814 306.526 38.2657C306.302 38.3595 306.114 38.3543 305.89 38.2345C305.427 37.9949 304.854 38.1772 304.614 38.6407C304.375 39.1043 304.557 39.6772 305.021 39.9168C305.416 40.1199 305.823 40.2189 306.234 40.2189C306.578 40.2189 306.927 40.1512 307.265 40.0053C308.963 39.2866 310.208 36.7657 310.88 35.0782C312.271 36.7449 314.807 39.2605 317.495 39.2605C318.114 39.2605 318.745 39.1251 319.37 38.8126C320.974 38.0105 321 38.0001 322.078 37.6772L322.333 37.5939C322.401 37.5782 322.463 37.5522 322.531 37.5262C324.364 46.1095 329.057 51.6876 329.265 51.9324C329.453 52.1512 329.719 52.2657 329.984 52.2657C330.203 52.2657 330.422 52.1928 330.599 52.0418C330.995 51.7032 331.047 51.1043 330.708 50.7085C330.656 50.6512 325.828 44.8855 324.224 36.3491C324.87 35.5887 325.229 34.5991 325.187 33.547C325.135 32.3335 325.25 30.8595 325.526 29.172L325.599 28.698C326.458 23.4585 327.198 18.9324 323.791 13.6772C321.245 9.7397 319.807 8.4897 317.427 6.41158C316.661 5.74491 315.786 4.97928 314.745 4.01053C310.255 -0.171757 303.927 -1.10405 296.453 1.31262C289.307 3.62512 284.989 5.59387 282.651 9.38032C281.916 10.5626 278.552 16.9376 280.224 18.6824C280.302 18.7657 280.437 18.8803 280.625 18.9689C280.078 21.9428 280.552 25.8491 280.578 26.0366C280.635 26.5157 281.041 26.8647 281.515 26.8647C281.552 26.8647 281.594 26.8647 281.63 26.8595C282.151 26.7918 282.515 26.323 282.453 25.8022C282.448 25.7553 281.901 21.2189 282.646 18.5939L282.666 18.5835L282.771 18.1928C283.166 16.6824 284.75 12.3282 286.791 12.1564C288.031 12.0522 288.755 12.1303 289.01 12.4012C289.5 12.9116 289.234 14.9168 289.151 15.5782C288.708 18.9324 288.562 22.0366 291.552 23.1147C291.937 23.2501 292.307 23.8335 292.656 24.6095L281.328 28.7397L281.276 28.6043C281.088 28.1355 280.562 27.8907 280.083 28.0574L279.088 28.4064C278.64 28.5574 278.375 29.0262 278.474 29.4897L278.693 30.5626Z" fill="white"/>
<path d="M292.837 39.9893C292.41 39.6924 291.822 39.8018 291.525 40.2341C291.228 40.6612 291.337 41.2497 291.764 41.5466C291.785 41.5622 293.921 43.057 295.889 45.7757C296.072 46.031 296.363 46.1716 296.655 46.1716C296.848 46.1716 297.04 46.1091 297.207 45.9893C297.634 45.682 297.728 45.0935 297.421 44.6716C295.254 41.6664 292.936 40.057 292.837 39.9893Z" fill="white"/>
<path d="M281.39 44.6878C281.505 44.6983 281.624 44.7035 281.744 44.7035C282.697 44.7035 283.692 44.3701 284.583 43.9274C287.515 48.292 288.926 51.9639 288.885 55.1358C288.859 57.3701 289.718 59.1878 291.239 60.1045C291.937 60.5316 292.729 60.7399 293.593 60.7399C294.661 60.7399 295.828 60.417 297.031 59.766C299.166 58.6201 301.578 57.7139 303.624 57.0472C304.286 58.2816 305.312 60.3597 305.494 61.516C305.567 61.9847 305.968 62.3181 306.426 62.3181C306.473 62.3181 306.525 62.3128 306.572 62.3024C307.088 62.2243 307.442 61.7399 307.364 61.2243C307.14 59.8181 306.13 57.7399 305.468 56.4847C307.161 55.9951 308.312 55.7451 308.338 55.7399C308.854 55.6306 309.176 55.1253 309.067 54.6149C308.958 54.1045 308.453 53.7816 307.942 53.891C307.671 53.9483 301.27 55.3441 296.135 58.1045C294.578 58.9378 293.187 59.0785 292.218 58.4899C291.286 57.9222 290.76 56.7087 290.775 55.1566C290.801 53.266 290.385 51.2451 289.52 49.0628C290.937 48.5524 292.676 47.3649 292.63 45.2035C292.619 44.6826 292.187 44.2712 291.666 44.2764C291.145 44.292 290.729 44.7191 290.739 45.2451C290.765 46.5056 289.479 47.0941 288.749 47.3233C288.078 45.9378 287.234 44.4899 286.218 42.9691C286.989 42.4378 287.531 41.9639 287.666 41.8441C288.057 41.4951 288.088 40.9014 287.739 40.5108C287.39 40.1201 286.796 40.0889 286.406 40.4326C285.609 41.1462 283.192 42.9483 281.557 42.8024C281.13 42.766 280.801 42.5837 280.536 42.2451C278.895 40.1306 280.249 38.4795 280.406 38.3024C280.755 37.917 280.729 37.3181 280.338 36.9639C279.958 36.6149 279.359 36.641 279.005 37.0264C278.088 38.0368 276.916 40.667 279.041 43.4014C279.63 44.1566 280.442 44.5993 281.39 44.6878ZM234.51 101.188C234.828 100.61 235.083 100.48 235.265 100.427C236.343 100.151 238.953 101.688 241.609 103.386C243.025 104.287 243.926 105.381 244.301 106.651L241.76 105.953C241.551 105.453 241.182 105.058 240.661 104.787C240.104 104.495 239.489 104.422 238.869 104.563C238.859 104.396 238.838 104.23 238.801 104.068C238.64 103.37 238.239 102.823 237.666 102.526C237.041 102.198 236.333 102.162 235.619 102.417C235.515 102.453 235.411 102.5 235.301 102.552C235.166 101.901 234.859 101.474 234.51 101.188ZM308.223 102.995C307.713 102.881 307.208 103.198 307.093 103.709C303.833 118.25 297.275 127.506 287.604 131.224C266.739 139.25 237.869 119.068 237.578 118.865C237.426 118.756 237.26 118.703 237.088 118.693C236.953 118.615 236.796 118.563 236.63 118.558C230.65 118.443 226.479 117.115 224.572 114.714C223.15 112.927 223.437 111.12 223.479 110.896C224.442 107.474 226.859 101.828 229.255 101.131C229.624 101.026 230.187 100.964 230.958 101.521C228.515 103.563 226.531 108.662 226.286 109.313C226.104 109.802 226.348 110.349 226.838 110.532C226.947 110.573 227.062 110.594 227.171 110.594C227.551 110.594 227.916 110.36 228.057 109.98C229.01 107.459 231.119 103.23 232.739 102.61C232.994 102.511 233.135 102.552 233.255 102.615C233.551 102.771 233.525 103.459 233.385 104.125C231.291 106.49 229.604 110.339 229.364 110.901C229.161 111.386 229.385 111.938 229.864 112.146C229.984 112.198 230.109 112.219 230.234 112.219C230.604 112.219 230.953 112.006 231.104 111.646C231.895 109.792 233.354 107.042 234.744 105.433C234.88 105.344 234.999 105.219 235.078 105.063C235.489 104.641 235.89 104.328 236.26 104.198C236.531 104.099 236.687 104.146 236.796 104.203C236.864 104.24 236.921 104.349 236.958 104.495C237.041 104.855 236.968 105.516 236.484 106.167H236.479C234.551 108.276 233.109 111.693 232.906 112.193C232.703 112.672 232.937 113.224 233.416 113.422C233.9 113.62 234.453 113.391 234.65 112.912C235.322 111.276 236.619 108.808 237.89 107.417C237.9 107.401 237.916 107.391 237.926 107.375C238.348 106.922 238.765 106.589 239.15 106.448C239.463 106.334 239.65 106.391 239.786 106.464C239.979 106.563 240.025 106.662 240.051 106.802C240.27 108.136 237.864 111.349 236.088 113.203C235.723 113.578 235.739 114.177 236.114 114.542C236.296 114.719 236.531 114.802 236.77 114.802C237.015 114.802 237.265 114.709 237.453 114.516C238.036 113.907 240.239 111.521 241.328 109.209L244.255 109.542C244.046 110.203 243.734 110.756 243.421 111.131C243.406 111.146 243.4 111.167 243.385 111.183C243.374 111.198 243.359 111.214 243.348 111.235C243.343 111.245 243.338 111.25 243.333 111.261C243.317 111.292 243.301 111.318 243.291 111.349C243.275 111.381 243.265 111.407 243.255 111.438C243.244 111.464 243.239 111.495 243.229 111.521C243.223 111.552 243.218 111.584 243.213 111.615C243.208 111.646 243.208 111.672 243.208 111.703C243.208 111.735 243.203 111.766 243.208 111.797C243.208 111.828 243.213 111.855 243.218 111.886C243.223 111.912 243.229 111.943 243.239 111.974C243.244 112.006 243.255 112.032 243.265 112.063C243.275 112.089 243.286 112.115 243.301 112.141C243.312 112.172 243.328 112.198 243.343 112.224C243.359 112.25 243.374 112.276 243.395 112.302C243.411 112.323 243.432 112.344 243.453 112.365C243.473 112.391 243.499 112.417 243.525 112.438C243.531 112.448 243.536 112.453 243.546 112.464C243.567 112.48 243.588 112.49 243.609 112.506C243.624 112.516 243.635 112.526 243.65 112.537C252.505 118.052 260.223 120.818 266.723 120.818C269.937 120.818 272.854 120.141 275.458 118.787C276.916 118.026 278.27 117.042 279.52 115.855L279.51 115.401C279.51 115.37 279.52 115.344 279.52 115.313C278.739 99.3024 287.156 95.9326 287.515 95.7972C287.958 95.6306 288.187 95.1358 288.025 94.6879C287.859 94.2347 287.359 94.0056 286.911 94.1722C286.51 94.3181 277.145 97.9639 277.77 114.87C276.817 115.73 275.76 116.495 274.578 117.11C267.505 120.792 257.718 118.881 245.484 111.443C245.76 110.953 245.999 110.386 246.161 109.761L254.578 110.719L254.859 109.547L246.338 107.209C246.328 107.131 246.322 107.047 246.307 106.969C246.083 105.532 245.26 103.469 242.63 101.787C238.229 98.9795 236.328 98.2035 234.796 98.5993C233.989 98.8076 233.354 99.3545 232.848 100.282C232.791 100.391 232.755 100.506 232.744 100.625C232.692 100.537 232.635 100.459 232.557 100.391C231.036 99.0264 229.635 99.0524 228.729 99.3129C227.619 99.6358 226.624 100.495 225.755 101.599L222.385 100.49L216.609 98.6149L216.343 97.9691L145.817 78.5733L144.828 79.4639L138.624 78.3389C138.624 78.3389 137.801 80.3962 139.145 81.0212C139.859 81.3597 144.489 82.891 144.937 84.2087C145.291 85.2451 146.057 95.6931 155.244 99.5681C155.244 99.5681 155.854 99.7504 156.15 100.36C156.374 100.823 156.713 101.224 157.218 101.36L195.89 111.688C196.437 111.834 197.187 111.615 197.604 111.256C197.843 111.063 198.182 110.896 198.598 110.948C199.687 111.042 206.546 111.37 212.411 105.521L219.109 106.11L223.041 106.459C222.239 108.381 221.755 110.047 221.635 110.464C221.609 110.578 221.031 113.256 223.057 115.844C225.338 118.761 229.88 120.313 236.546 120.448C237.244 120.933 244.468 125.896 254.025 129.86C262.26 133.271 269.921 134.99 276.713 134.99C280.926 134.99 284.807 134.328 288.275 132.995C298.583 129.032 305.536 119.318 308.942 104.12C309.051 103.615 308.734 103.11 308.223 102.995Z" fill="white"/>
<path d="M147.505 76.9165C147.974 77.1457 148.542 76.953 148.771 76.4842C157.417 58.8175 166.453 55.7134 171.083 55.4582C166.901 57.953 163.938 61.4998 162.276 66.005C162.037 66.6561 162.214 67.38 162.735 67.8436C163.255 68.3071 163.995 68.4061 164.615 68.0988C165.037 67.8852 165.458 67.7082 165.88 67.5727C160.188 72.3748 161.917 80.3019 161.938 80.3852C162.037 80.828 162.427 81.1196 162.86 81.1196C162.927 81.1196 163 81.1144 163.068 81.0988C163.578 80.9842 163.896 80.4738 163.781 79.9686C163.708 79.6352 162.042 71.88 168.469 68.0415C169.057 67.6925 169.318 67.0155 169.115 66.3592C168.917 65.703 168.297 65.2707 167.62 65.3175C166.5 65.3852 165.365 65.6769 164.229 66.1873C165.771 62.3227 168.401 59.2602 172.052 57.078C172.818 56.6248 173.151 55.7446 172.891 54.8957C172.625 54.0363 171.849 53.505 170.958 53.5519C165.932 53.854 156.136 57.1196 147.073 75.6509C146.844 76.1196 147.037 76.6873 147.505 76.9165ZM391.031 86.979C389.537 78.7759 386.344 73.2915 386.209 73.0623C385.943 72.6144 385.365 72.4634 384.912 72.729C384.464 72.9946 384.313 73.5727 384.578 74.0259C384.703 74.2394 397.031 95.6457 383.552 116.187C375.406 128.604 365.276 133.156 365.177 133.198C364.698 133.411 364.479 133.969 364.688 134.443C364.844 134.797 365.193 135.01 365.557 135.01C365.682 135.01 365.807 134.984 365.932 134.932C366.365 134.745 376.662 130.135 385.136 117.224C392.516 105.974 392.417 94.5675 391.031 86.979ZM367.412 80.3332C367.386 80.2915 367.375 80.2655 367.375 80.2655L384.615 69.8019C361.375 44.5884 346.542 47.7082 338.047 50.9113C329.323 54.203 323.599 58.6873 303.5 64.9738C299.927 66.0936 291.084 70.1977 287.209 89.8436L308 96.5936C308 96.5936 323.203 109.781 310.599 134.307C310.599 134.307 337.844 152.719 363.495 123.265C369.813 116.015 371.906 108.104 372.068 101.068C365.13 93.2134 367.281 81.0363 367.412 80.3332Z" fill="white"/>
</svg>
